<svg id="Capa_1" enable-background="new 0 0 512.05 512.05" height="512" viewBox="0 0 512.05 512.05" width="512" xmlns="http://www.w3.org/2000/svg"><g><path d="m500.155 76.701-145.613 44.349 145.613 44.35 8.74-28.699-51.386-15.651 51.386-15.65z"/><path d="m11.895 165.4 145.614-44.35-145.614-44.349-8.74 28.699 51.386 15.65-51.386 15.651z"/><path d="m447.668 469.945c-8.474 6.201-14.883 10.878-26.643 11.894v-14.789c0-36.78-26.619-67.438-61.6-73.777l-26.417-212.223h28.017v-30h-30v-81.55l-75-69.5-75 69.5v81.55h-30v30h28.017l-26.418 212.223c-34.98 6.339-61.599 36.998-61.599 73.777v14.788c-11.76-1.016-18.168-5.693-26.643-11.894-10.896-7.972-24.456-17.895-49.357-17.895h-15v30h15c15.098 0 22.038 5.078 31.643 12.105 10.896 7.972 24.456 17.895 49.357 17.895 25 0 38.308-9.98 49-18 9.289-6.967 16-12 31-12s21.711 5.033 31 12c10.692 8.02 24 18 49 18s38.308-9.98 49-18c9.289-6.967 16-12 31-12s21.711 5.033 31 12c10.692 8.02 24 18 49 18 24.901 0 38.462-9.922 49.357-17.895 9.604-7.028 16.544-12.105 31.643-12.105h15v-30h-15c-24.901.001-38.462 9.923-49.357 17.896zm-191.643-429.045 21.745 20.15h-43.489zm-45 50.15h90v60h-30v-30h-30v30h-30zm-1.751 90h93.503l26.266 211h-58.017v-61h-30v61h-58.017zm181.751 293.365c-1.952-1.336-3.911-2.798-6-4.365-10.692-8.02-24-18-49-18s-38.308 9.98-49 18c-9.289 6.967-16 12-31 12s-21.711-5.033-31-12c-10.692-8.02-24-18-49-18s-38.308 9.98-49 18c-2.089 1.567-4.048 3.029-6 4.365v-7.365c0-24.813 20.187-45 45-45h180c24.813 0 45 20.187 45 45z"/><path d="m241.025 211.05h30v30h-30z"/><path d="m241.025 271.05h30v30h-30z"/></g></svg>